<?xml version="1.0" encoding="UTF-8" standalone="no"?>
<!-- Created with Inkscape (http://www.inkscape.org/) -->

<svg
   xmlns:dc="http://purl.org/dc/elements/1.1/"
   xmlns:cc="http://creativecommons.org/ns#"
   xmlns:rdf="http://www.w3.org/1999/02/22-rdf-syntax-ns#"
   xmlns:svg="http://www.w3.org/2000/svg"
   xmlns="http://www.w3.org/2000/svg"
   xmlns:sodipodi="http://sodipodi.sourceforge.net/DTD/sodipodi-0.dtd"
   xmlns:inkscape="http://www.inkscape.org/namespaces/inkscape"
   width="29.127735mm"
   height="27.835188mm"
   viewBox="0 0 29.127736 27.835187"
   version="1.1"
   id="svg8"
   inkscape:version="0.92.3 (2405546, 2018-03-11)"
   sodipodi:docname="favicon.svg">
  <defs
     id="defs2" />
  <sodipodi:namedview
     id="base"
     pagecolor="#ffffff"
     bordercolor="#666666"
     borderopacity="1.0"
     inkscape:pageopacity="0.0"
     inkscape:pageshadow="2"
     inkscape:zoom="0.24748737"
     inkscape:cx="182.94138"
     inkscape:cy="1308.5186"
     inkscape:document-units="mm"
     inkscape:current-layer="layer1"
     showgrid="false"
     fit-margin-top="0"
     fit-margin-left="0"
     fit-margin-right="0"
     fit-margin-bottom="0"
     inkscape:window-width="1920"
     inkscape:window-height="1017"
     inkscape:window-x="-8"
     inkscape:window-y="-8"
     inkscape:window-maximized="1" />
  <metadata
     id="metadata5">
    <rdf:RDF>
      <cc:Work
         rdf:about="">
        <dc:format>image/svg+xml</dc:format>
        <dc:type
           rdf:resource="http://purl.org/dc/dcmitype/StillImage" />
        <dc:title></dc:title>
      </cc:Work>
    </rdf:RDF>
  </metadata>
  <g
     inkscape:label="Layer 1"
     inkscape:groupmode="layer"
     id="layer1"
     transform="translate(228.91403,-247.88613)">
    <path
       style="opacity:1;fill:#916f6f;fill-opacity:0.99729728;stroke:none;stroke-width:1.75340784;stroke-miterlimit:4;stroke-dasharray:none;stroke-opacity:1"
       d="m -209.26707,274.8795 c -3.00292,-4.69162 -6.37236,-10.90148 -7.47325,-13.77317 -0.80057,-2.08833 -0.95842,-2.88552 -0.88315,-4.46029 0.0822,-1.71951 0.31223,-2.65177 1.018,-4.12546 1.0863,-2.26827 3.22839,-3.87294 5.90294,-4.42198 4.81281,-0.988 9.21257,1.54432 10.50195,6.04448 0.34532,1.20523 0.5107,3.08906 0.35613,4.05662 -0.45987,2.87871 -3.70153,9.34783 -8.38877,16.74082 l -0.49503,0.7808 z m 1.79894,-14.92272 c 1.53343,-0.69902 2.23846,-2.30544 1.74181,-3.96875 -0.2294,-0.76829 -1.2151,-1.71382 -2.03858,-1.95551 -0.84169,-0.24704 -1.16744,-0.24447 -1.9777,0.0156 -2.20391,0.70736 -2.88386,3.64369 -1.21254,5.23626 0.92908,0.88529 2.39844,1.16864 3.48701,0.67241 z"
       id="path1379"
       inkscape:connector-curvature="0" />
    <path
       style="opacity:1;fill:#483737;fill-opacity:0.99729728;stroke:none;stroke-width:1.24301696;stroke-miterlimit:4;stroke-dasharray:none;stroke-opacity:1"
       d="m -225.28606,272.99763 c -0.14676,-0.0916 -0.30498,-0.27849 -0.3516,-0.41539 -0.0593,-0.17415 -0.0122,-1.58965 0.15684,-4.71244 0.13289,-2.45494 0.24299,-4.66067 0.24468,-4.90163 l 0.003,-0.43811 -0.42714,-0.20049 c -0.59028,-0.27706 -0.89489,-0.49765 -1.21611,-1.11426 -0.67876,-1.30294 -1.06413,-1.41323 -0.46378,-5.25478 0.21522,-1.37721 0.41198,-2.98968 0.70782,-3.14621 0.465,-0.24602 0.95414,-0.17976 1.08945,0.181 0.0292,0.0779 0.0531,1.45355 0.0531,3.05695 v 2.91527 l 0.20706,0.0532 c 0.28173,0.0724 0.47137,-0.0162 0.51582,-0.24077 0.0204,-0.10299 0.0997,-1.40817 0.17623,-2.90039 0.14844,-2.89403 0.3432,-3.05849 0.7769,-3.22719 0.47277,-0.18391 0.65815,0.132 0.79234,0.47294 0.0469,0.11913 0.68231,4.92493 0.69444,5.69785 0.003,0.16227 0.26088,0.25684 0.51549,0.18872 0.16677,-0.0446 0.17109,-0.11937 0.17109,-2.9626 v -2.91683 l 0.20644,-0.24556 c 0.18396,-0.21881 0.15026,-0.13031 0.61207,-0.13031 0.77636,0 1.08504,2.15996 1.33526,3.74546 0.38331,2.42871 0.0907,2.83507 -0.0236,3.63715 -0.20229,1.42001 -0.68018,1.51563 -1.86153,2.15959 l -0.53715,0.2928 0.0486,0.53864 c 0.0267,0.29624 0.15031,2.52055 0.2746,4.9429 0.22579,4.40099 0.22583,4.40445 0.056,4.63856 -0.29829,0.41113 -0.4755,0.45044 -2.0354,0.45147 -1.27974,0.001 -1.48622,-0.019 -1.72104,-0.16551 z"
       id="path1959"
       inkscape:connector-curvature="0"
       sodipodi:nodetypes="ccccccssssscsssccccsccsscccsscccc" />
    <rect
       style="opacity:1;fill:#916f6f;fill-opacity:0.99729728;stroke:none;stroke-width:0.5396452;stroke-miterlimit:4;stroke-dasharray:none;stroke-opacity:1"
       id="rect1976"
       width="20.18578"
       height="1.2816795"
       x="-228.91403"
       y="274.43964" />
  </g>
</svg>
