<?xml version="1.0" encoding="UTF-8" standalone="no"?>
<!-- Created with Inkscape (http://www.inkscape.org/) -->

<svg
   xmlns:dc="http://purl.org/dc/elements/1.1/"
   xmlns:cc="http://creativecommons.org/ns#"
   xmlns:rdf="http://www.w3.org/1999/02/22-rdf-syntax-ns#"
   xmlns:svg="http://www.w3.org/2000/svg"
   xmlns="http://www.w3.org/2000/svg"
   xmlns:sodipodi="http://sodipodi.sourceforge.net/DTD/sodipodi-0.dtd"
   xmlns:inkscape="http://www.inkscape.org/namespaces/inkscape"
   width="93.359863mm"
   height="38.042362mm"
   viewBox="0 0 93.359863 38.042362"
   version="1.1"
   id="svg1102"
   inkscape:version="0.92.3 (2405546, 2018-03-11)"
   sodipodi:docname="logo.svg">
  <defs
     id="defs1096" />
  <sodipodi:namedview
     id="base"
     pagecolor="#ffffff"
     bordercolor="#666666"
     borderopacity="1.0"
     inkscape:pageopacity="0.0"
     inkscape:pageshadow="2"
     inkscape:zoom="1.979899"
     inkscape:cx="167.31076"
     inkscape:cy="101.94173"
     inkscape:document-units="mm"
     inkscape:current-layer="layer1"
     showgrid="false"
     showguides="true"
     fit-margin-top="0"
     fit-margin-left="0"
     fit-margin-right="0"
     fit-margin-bottom="0"
     inkscape:window-width="1920"
     inkscape:window-height="1017"
     inkscape:window-x="-8"
     inkscape:window-y="-8"
     inkscape:window-maximized="1" />
  <metadata
     id="metadata1099">
    <rdf:RDF>
      <cc:Work
         rdf:about="">
        <dc:format>image/svg+xml</dc:format>
        <dc:type
           rdf:resource="http://purl.org/dc/dcmitype/StillImage" />
        <dc:title></dc:title>
      </cc:Work>
    </rdf:RDF>
  </metadata>
  <g
     inkscape:label="Layer 1"
     inkscape:groupmode="layer"
     id="layer1"
     transform="translate(-55.243584,-105.62362)">
    <flowRoot
       xml:space="preserve"
       id="flowRoot1736"
       style="font-style:normal;font-variant:normal;font-weight:normal;font-stretch:normal;font-size:40px;line-height:1.25;font-family:Gabriola;-inkscape-font-specification:Gabriola;letter-spacing:0px;word-spacing:0px;fill:#fefefe;fill-opacity:0.97008535;stroke:none;stroke-width:0.18897638;stroke-miterlimit:4;stroke-dasharray:none"
       transform="scale(0.26458333)"><flowRegion
         id="flowRegion1738"
         style="font-style:normal;font-variant:normal;font-weight:normal;font-stretch:normal;font-family:Gabriola;-inkscape-font-specification:Gabriola;fill:#fefefe;fill-opacity:0.97008535;stroke-width:0.18897638;stroke-miterlimit:4;stroke-dasharray:none"><rect
           id="rect1740"
           width="485.71429"
           height="90"
           x="146.42857"
           y="458.94824"
           style="font-style:normal;font-variant:normal;font-weight:normal;font-stretch:normal;font-family:Gabriola;-inkscape-font-specification:Gabriola;fill:#fefefe;fill-opacity:0.97008535;stroke-width:0.18897638;stroke-miterlimit:4;stroke-dasharray:none" /></flowRegion><flowPara
         id="flowPara1742"></flowPara></flowRoot>    <text
       xml:space="preserve"
       style="font-style:normal;font-weight:normal;font-size:10.58333302px;line-height:1.25;font-family:sans-serif;letter-spacing:0px;word-spacing:0px;fill:#fefefe;fill-opacity:0.97008535;stroke:none;stroke-width:0.26458332"
       x="54.995537"
       y="129.36757"
       id="text1746"><tspan
         sodipodi:role="line"
         id="tspan1744"
         x="54.995537"
         y="129.36757"
         style="font-style:normal;font-variant:normal;font-weight:normal;font-stretch:normal;font-size:25.39999962px;font-family:Gabriola;-inkscape-font-specification:Gabriola;fill:#fefefe;fill-opacity:0.97008535;stroke-width:0.26458332">FlavorSome</tspan></text>
    <path
       style="fill:#fefefe;fill-opacity:0.97008535;stroke:none;stroke-width:0.01262691;stroke-miterlimit:4;stroke-dasharray:none;stroke-opacity:0.94975161"
       d="m 133.82494,118.7227 c -1.96089,-0.67471 -4.42143,-2.0446 -5.39506,-3.00368 -0.49753,-0.49008 -0.6241,-0.66413 -0.92322,-1.26953 -0.96216,-1.94731 -1.05726,-4.53746 -0.27967,-7.61749 0.30018,-1.18902 0.23646,-1.13551 0.7015,-0.58912 0.2205,0.25908 0.74792,0.80588 1.17205,1.21512 2.0388,1.96723 3.90822,3.14682 5.70011,3.59671 0.81292,0.2041 1.27881,0.59706 1.7052,1.43827 0.61537,1.21401 0.3975,3.1677 -0.58701,5.26397 l -0.3138,0.66818 -0.002,-0.7684 c -0.003,-1.11631 -0.20355,-1.96216 -0.69538,-2.93997 -0.33196,-0.65996 -0.62498,-1.05988 -1.21425,-1.65721 -0.65813,-0.66714 -1.96845,-1.61545 -2.07915,-1.50474 -0.0192,0.0192 0.14003,0.25491 0.35377,0.52388 1.49587,1.88239 2.36544,3.88459 2.45507,5.65285 0.0414,0.81728 0.005,1.12937 -0.13112,1.12566 -0.0452,-0.001 -0.25522,-0.0618 -0.46663,-0.1345 z"
       id="path2359"
       inkscape:connector-curvature="0" />
    <path
       style="fill:#fefefe;fill-opacity:0.97008535;stroke:none;stroke-width:0.00699931;stroke-miterlimit:4;stroke-dasharray:none;stroke-opacity:0.94975161"
       d="m 115.99701,116.13395 c -0.14887,-1.14531 0.58659,-1.99196 2.17982,-2.50938 1.10058,-0.35742 2.29638,-0.42493 3.27082,-0.18467 0.41931,0.10339 0.98226,0.37537 1.28048,0.61864 0.25323,0.20658 0.46889,0.4353 0.44473,0.47166 -0.007,0.0105 -0.22114,0.007 -0.4759,-0.008 -0.98052,-0.0575 -2.01782,0.009 -2.70514,0.17258 -0.69091,0.16473 -0.9944,0.34337 -1.3297,0.78268 -0.44879,0.58799 -1.24958,0.97123 -2.23896,1.07151 l -0.30244,0.0307 -0.0522,-0.14857 c -0.0287,-0.0817 -0.0609,-0.21538 -0.0715,-0.29704 z"
       id="path2361"
       inkscape:connector-curvature="0" />
    <path
       style="fill:#fefefe;fill-opacity:0.97008535;stroke:none;stroke-width:0.00699931;stroke-miterlimit:4;stroke-dasharray:none;stroke-opacity:0.94975161"
       d="m 116.12072,116.57967 c 1.3641,0.0793 2.63445,-0.025 3.29491,-0.27052 0.43894,-0.16314 0.64303,-0.30565 0.88621,-0.61879 0.25327,-0.32613 0.6527,-0.64229 1.01296,-0.80178 0.30112,-0.1333 0.99179,-0.30517 1.32279,-0.32917 l 0.23191,-0.0168 0.0705,0.14916 c 0.0935,0.19786 0.1191,0.64627 0.0551,0.965 -0.0666,0.33142 -0.311,0.73942 -0.60375,1.00777 -0.82884,0.75977 -2.60059,1.25699 -4.02703,1.13013 -0.1952,-0.0174 -0.47438,-0.0542 -0.62041,-0.0819 -0.37973,-0.072 -1.1053,-0.38553 -1.37769,-0.59533 -0.2006,-0.15449 -0.5074,-0.45797 -0.53452,-0.52871 -0.006,-0.0145 0.1245,-0.0186 0.28906,-0.009 z"
       id="path2363"
       inkscape:connector-curvature="0" />
    <path
       style="fill:#fefefe;fill-opacity:0.97008535;stroke:none;stroke-width:0.01262691;stroke-miterlimit:4;stroke-dasharray:none;stroke-opacity:0.94975161"
       d="m 92.495457,143.38167 c 0.06194,-0.17938 0.347808,-0.51191 0.993439,-1.15545 1.378683,-1.37422 2.400898,-2.23336 3.975142,-3.34097 1.528319,-1.07531 2.538032,-1.67988 4.207452,-2.51924 1.09946,-0.55278 2.49368,-1.47057 2.95103,-1.94262 0.22815,-0.23547 0.29993,-0.37319 0.43321,-0.83118 0.50078,-1.7207 1.51185,-3.10743 2.6185,-3.59135 0.75697,-0.33101 1.08359,-0.35552 2.1782,-0.16338 l 0.96645,0.16964 0.16791,0.22889 c 0.36221,0.49373 0.39051,1.08999 0.0818,1.7236 -0.48519,0.99584 -0.62926,1.23598 -0.93087,1.55171 -0.61873,0.64772 -1.51569,1.07069 -2.61998,1.23552 -0.60377,0.0901 -1.70398,0.11329 -2.1006,0.0442 -0.37574,-0.0654 -2.53575,1.38335 -3.96121,2.65688 -1.1728,1.04779 -2.549613,2.13883 -4.767068,3.77763 -2.138984,1.58081 -3.706926,2.50861 -4.117608,2.43652 -0.152567,-0.0268 -0.157316,-0.0443 -0.07581,-0.28044 z"
       id="path2365"
       inkscape:connector-curvature="0" />
    <path
       style="fill:#fefefe;fill-opacity:0.97008535;stroke:none;stroke-width:0.00892857;stroke-miterlimit:4;stroke-dasharray:none;stroke-opacity:0.94975161"
       d="m 109.38833,143.49641 c -0.92169,-0.25963 -2.14389,-1.03488 -4.30029,-2.72772 -1.82215,-1.43045 -2.86295,-2.33317 -3.36466,-2.91827 -0.9802,-1.14312 -2.108299,-2.23719 -3.136903,-3.04224 l -0.7189,-0.56265 -0.296818,0.0407 c -0.173018,0.0238 -0.402518,0.0178 -0.550154,-0.0135 -1.122181,-0.23836 -2.615517,-1.68047 -4.301006,-4.15345 -0.521744,-0.76552 -1.211491,-1.87891 -1.184921,-1.91272 0.01555,-0.0198 2.891209,2.28131 4.27542,3.42125 1.19178,0.98146 1.946869,1.64555 2.141644,1.88355 0.333559,0.40757 0.737624,0.73809 2.423568,1.98234 0.89796,0.66273 1.63454,1.22071 1.63685,1.23998 0.002,0.0193 0.32326,0.24079 0.71319,0.49227 1.86558,1.20316 3.48787,2.35054 4.7484,3.35839 1.69322,1.35379 2.47993,2.21017 2.50429,2.72611 0.009,0.1922 0.003,0.20181 -0.1533,0.23198 -0.0897,0.0178 -0.2855,-0.003 -0.43637,-0.0456 z"
       id="path2367"
       inkscape:connector-curvature="0" />
    <rect
       style="fill:#fefefe;fill-opacity:0.97008535;stroke:none;stroke-width:0.04611121;stroke-miterlimit:4;stroke-dasharray:none;stroke-opacity:0.94975161"
       id="rect2411"
       width="39.779606"
       height="0.4009043"
       x="56.165741"
       y="136.32401" />
    <rect
       style="fill:#fefefe;fill-opacity:0.97008535;stroke:none;stroke-width:0.04476646;stroke-miterlimit:4;stroke-dasharray:none;stroke-opacity:0.94975161"
       id="rect2411-9"
       width="37.493237"
       height="0.4009043"
       x="107.09564"
       y="136.89096" />
    <path
       style="fill:#fefefe;fill-opacity:0.97008535;stroke:none;stroke-width:0.00871366;stroke-miterlimit:4;stroke-dasharray:none;stroke-opacity:0.94975161"
       d="m 138.84122,117.8012 c 1.1526,0.84817 2.8959,1.70709 3.82241,1.88329 0.47345,0.09 0.62192,0.0936 1.08294,0.0257 1.48294,-0.2182 2.99043,-1.18083 4.43344,-2.83109 0.55707,-0.63706 0.55171,-0.5799 0.0591,-0.62939 -0.23359,-0.0235 -0.75097,-0.10822 -1.14972,-0.18833 -1.91681,-0.38508 -3.32008,-0.98319 -4.27875,-1.82368 -0.43491,-0.3813 -0.84081,-0.49151 -1.48564,-0.40335 -0.9306,0.12721 -1.954,1.01769 -2.75741,2.39927 l -0.2561,0.44037 0.43693,-0.30047 c 0.63479,-0.43643 1.19361,-0.6546 1.94165,-0.75922 0.50488,-0.0706 0.84689,-0.0613 1.41722,0.0388 0.63697,0.11171 1.68953,0.48323 1.67014,0.58952 -0.003,0.0184 -0.19965,0.0206 -0.43621,0.005 -1.65555,-0.11023 -3.13331,0.18207 -4.17215,0.82523 -0.48013,0.29727 -0.64299,0.44043 -0.58746,0.51624 0.0183,0.0253 0.13525,0.1206 0.2595,0.21206 z"
       id="path2359-4"
       inkscape:connector-curvature="0" />
    <path
       style="fill:#fefefe;fill-opacity:0.97008535;stroke:none;stroke-width:0.01262691;stroke-miterlimit:4;stroke-dasharray:none;stroke-opacity:0.94975161"
       d="m 88.206938,118.47552 c -1.96089,-0.67471 -4.42143,-2.0446 -5.39506,-3.00367 -0.49753,-0.49009 -0.6241,-0.66413 -0.92322,-1.26953 -0.96216,-1.94732 -1.05726,-4.53747 -0.27967,-7.6175 0.30018,-1.18902 0.23646,-1.13551 0.7015,-0.58911 0.2205,0.25907 0.74792,0.80587 1.17205,1.21511 2.0388,1.96724 3.90822,3.14682 5.70011,3.59671 0.81292,0.2041 1.27881,0.59706 1.7052,1.43828 0.61537,1.214 0.3975,3.16769 -0.58701,5.26396 l -0.3138,0.66818 -0.002,-0.7684 c -0.003,-1.11631 -0.20356,-1.96216 -0.69539,-2.93996 -0.33196,-0.65996 -0.62498,-1.05989 -1.21425,-1.65722 -0.65813,-0.66714 -1.96845,-1.61544 -2.07915,-1.50473 -0.0192,0.0192 0.14003,0.2549 0.35377,0.52387 1.49587,1.88239 2.36544,3.88459 2.45507,5.65285 0.0414,0.81728 0.005,1.12937 -0.13112,1.12566 -0.0452,-0.001 -0.25522,-0.0618 -0.46663,-0.1345 z"
       id="path2359-6"
       inkscape:connector-curvature="0" />
    <path
       style="fill:#fefefe;fill-opacity:0.97008535;stroke:none;stroke-width:0.00647281;stroke-miterlimit:4;stroke-dasharray:none;stroke-opacity:0.94975161"
       d="m 94.191675,119.14834 c 1.10837,-0.31368 2.49915,-0.95054 3.04948,-1.39642 0.28122,-0.22784 0.35276,-0.30876 0.52183,-0.59021 0.54385,-0.90531 0.5976,-2.10948 0.15808,-3.54139 -0.16967,-0.55278 -0.13365,-0.52791 -0.39651,-0.27388 -0.12463,0.12044 -0.42275,0.37465 -0.66248,0.56491 -1.1524,0.91457 -2.20906,1.46296 -3.2219,1.67212 -0.45949,0.0949 -0.72283,0.27757 -0.96384,0.66865 -0.34783,0.5644 -0.22468,1.47268 0.3318,2.44724 l 0.17737,0.31064 10e-4,-0.35723 c 0.002,-0.51898 0.11505,-0.91222 0.39305,-1.3668 0.18764,-0.30682 0.35326,-0.49275 0.68634,-0.77045 0.372,-0.31015 1.11264,-0.75102 1.17521,-0.69955 0.0109,0.009 -0.0791,0.1185 -0.19997,0.24355 -0.84551,0.87512 -1.33702,1.80596 -1.38769,2.62803 -0.0234,0.37995 -0.003,0.52504 0.0741,0.52332 0.0256,-4.7e-4 0.14426,-0.0287 0.26376,-0.0625 z"
       id="path2359-1"
       inkscape:connector-curvature="0" />
    <rect
       style="fill:#fefefe;fill-opacity:0.97008535;stroke:none;stroke-width:0.06936828;stroke-miterlimit:4;stroke-dasharray:none;stroke-opacity:0.94975161"
       id="rect2411-4"
       width="90.026276"
       height="0.4009043"
       x="55.613838"
       y="110.11179" />
  </g>
</svg>
