<?xml version="1.0" encoding="UTF-8" standalone="no"?>
<!-- Created with Inkscape (http://www.inkscape.org/) -->

<svg
   xmlns:dc="http://purl.org/dc/elements/1.1/"
   xmlns:cc="http://creativecommons.org/ns#"
   xmlns:rdf="http://www.w3.org/1999/02/22-rdf-syntax-ns#"
   xmlns:svg="http://www.w3.org/2000/svg"
   xmlns="http://www.w3.org/2000/svg"
   xmlns:sodipodi="http://sodipodi.sourceforge.net/DTD/sodipodi-0.dtd"
   xmlns:inkscape="http://www.inkscape.org/namespaces/inkscape"
   width="89.295555mm"
   height="26.973145mm"
   viewBox="0 0 89.295555 26.973144"
   version="1.1"
   id="svg1102"
   inkscape:version="0.92.3 (2405546, 2018-03-11)"
   sodipodi:docname="logo.svg">
  <defs
     id="defs1096" />
  <sodipodi:namedview
     id="base"
     pagecolor="#ffffff"
     bordercolor="#666666"
     borderopacity="1.0"
     inkscape:pageopacity="0.0"
     inkscape:pageshadow="2"
     inkscape:zoom="2.8"
     inkscape:cx="176.02484"
     inkscape:cy="62.89421"
     inkscape:document-units="mm"
     inkscape:current-layer="layer1"
     showgrid="false"
     showguides="true"
     fit-margin-top="0"
     fit-margin-left="0"
     fit-margin-right="0"
     fit-margin-bottom="0"
     inkscape:window-width="1920"
     inkscape:window-height="1017"
     inkscape:window-x="-8"
     inkscape:window-y="-8"
     inkscape:window-maximized="1" />
  <metadata
     id="metadata1099">
    <rdf:RDF>
      <cc:Work
         rdf:about="">
        <dc:format>image/svg+xml</dc:format>
        <dc:type
           rdf:resource="http://purl.org/dc/dcmitype/StillImage" />
        <dc:title></dc:title>
      </cc:Work>
    </rdf:RDF>
  </metadata>
  <g
     inkscape:label="Layer 1"
     inkscape:groupmode="layer"
     id="layer1"
     transform="translate(-55.293324,-112.5953)">
    <flowRoot
       xml:space="preserve"
       id="flowRoot1736"
       style="font-style:normal;font-variant:normal;font-weight:normal;font-stretch:normal;font-size:40px;line-height:1.25;font-family:Gabriola;-inkscape-font-specification:Gabriola;letter-spacing:0px;word-spacing:0px;fill:#efefef;fill-opacity:0.64419478;stroke:none;stroke-width:0.18897638;stroke-miterlimit:4;stroke-dasharray:none"
       transform="scale(0.26458333)"><flowRegion
         id="flowRegion1738"
         style="font-style:normal;font-variant:normal;font-weight:normal;font-stretch:normal;font-family:Gabriola;-inkscape-font-specification:Gabriola;fill:#efefef;fill-opacity:0.64419478;stroke-width:0.18897638;stroke-miterlimit:4;stroke-dasharray:none"><rect
           id="rect1740"
           width="485.71429"
           height="90"
           x="146.42857"
           y="458.94824"
           style="font-style:normal;font-variant:normal;font-weight:normal;font-stretch:normal;font-family:Gabriola;-inkscape-font-specification:Gabriola;fill:#efefef;fill-opacity:0.64419478;stroke-width:0.18897638;stroke-miterlimit:4;stroke-dasharray:none" /></flowRegion><flowPara
         id="flowPara1742" /></flowRoot>    <rect
       style="fill:#efefef;fill-opacity:0.64419478;stroke:none;stroke-width:0.04611121;stroke-miterlimit:4;stroke-dasharray:none;stroke-opacity:0.94975161"
       id="rect2411"
       width="39.779606"
       height="0.4009043"
       x="56.165741"
       y="136.32401" />
    <rect
       style="fill:#efefef;fill-opacity:0.64419478;stroke:none;stroke-width:0.04476646;stroke-miterlimit:4;stroke-dasharray:none;stroke-opacity:0.94975161"
       id="rect2411-9"
       width="37.493237"
       height="0.4009043"
       x="107.09564"
       y="136.89096" />
    <path
       style="opacity:1;fill:#efefef;fill-opacity:0.64419478;stroke:none;stroke-width:0.6363402;stroke-miterlimit:4;stroke-dasharray:none;stroke-opacity:1"
       d="m 97.990858,139.39302 c -0.0552,-0.0279 -0.113025,-0.10042 -0.128402,-0.16119 -0.03152,-0.12516 0.01224,-1.59627 0.0741,-2.49194 0.06212,-0.90005 0.05658,-1.5026 -0.01224,-1.5026 -0.0318,0 -0.14777,-0.0571 -0.257647,-0.12663 -0.159629,-0.10123 -0.239476,-0.20171 -0.396244,-0.49833 l -0.196392,-0.37155 0.0045,-0.48723 c 0.0061,-0.57229 0.188665,-1.84111 0.309064,-2.13724 0.05013,-0.12304 0.08057,-0.14394 0.210399,-0.14394 0.08349,0 0.173933,0.0266 0.200818,0.0591 0.03228,0.039 0.05306,0.45644 0.0609,1.22919 l 0.01077,1.17019 0.121618,0.0142 c 0.09239,0.0106 0.13162,-0.0106 0.164273,-0.0885 0.02353,-0.0564 0.06289,-0.49148 0.08701,-0.96685 0.0492,-0.96102 0.101465,-1.2828 0.22599,-1.3956 0.09718,-0.0879 0.284355,-0.0613 0.32567,0.0466 0.03059,0.0801 0.230817,1.57845 0.273393,2.04757 0.02627,0.2886 0.03983,0.3241 0.132845,0.34747 0.05689,0.0142 0.124836,0.012 0.15054,-0.003 0.03091,-0.0192 0.0469,-0.4165 0.0469,-1.17112 0,-1.05029 0.0077,-1.1481 0.08087,-1.2155 0.166334,-0.15043 0.371779,-0.0414 0.487355,0.2589 0.07622,0.19821 0.212512,0.91121 0.277292,1.45167 0.0463,0.38634 0.0464,0.54233 10e-4,0.81945 -0.11253,0.68851 -0.19394,0.81062 -0.715908,1.07412 -0.225866,0.11399 -0.263799,0.15059 -0.263414,0.25437 2.5e-4,0.0668 0.02937,0.59956 0.06459,1.18424 0.03538,0.58469 0.0775,1.42187 0.09394,1.86039 0.03814,1.02121 0.07702,0.97016 -0.750514,0.98479 -0.369519,0.007 -0.619096,-0.008 -0.682935,-0.0403 z"
       id="path1399"
       inkscape:connector-curvature="0" />
    <path
       inkscape:connector-curvature="0"
       id="path857"
       d="m 103.89667,139.25891 c -0.11511,-0.17023 -0.22149,-0.33057 -0.23638,-0.35634 -0.0148,-0.0257 -0.10502,-0.16777 -0.20005,-0.31557 -0.0951,-0.14779 -0.31299,-0.50005 -0.48419,-0.78279 -0.91234,-1.50696 -1.43601,-2.57471 -1.56843,-3.19796 -0.0785,-0.36958 -0.025,-1.01613 0.11522,-1.39367 0.16372,-0.44054 0.36611,-0.74657 0.68128,-1.03019 0.4246,-0.38209 0.96132,-0.6066 1.619,-0.67724 1.12913,-0.12129 2.17778,0.37643 2.71126,1.28682 0.27418,0.46788 0.41606,1.31488 0.30407,1.81525 -0.19581,0.87506 -1.26617,2.84274 -2.67649,4.92032 -0.0153,0.0225 -0.0341,0.0409 -0.0418,0.0409 -0.008,0 -0.10839,-0.13928 -0.22342,-0.30952 z m 0.64631,-4.26167 c 0.38792,-0.17516 0.60137,-0.538 0.56045,-0.95271 -0.0281,-0.28395 -0.16655,-0.49484 -0.43675,-0.66486 -0.69217,-0.43552 -1.5806,0.0494 -1.53227,0.83616 0.031,0.50395 0.47721,0.874 1.03658,0.85961 0.17779,-0.005 0.23602,-0.0168 0.37199,-0.0782 z"
       style="opacity:1;fill:#efefef;fill-opacity:0.64419478;stroke:none;stroke-width:0.00591393;stroke-miterlimit:4;stroke-dasharray:none;stroke-opacity:1" />
    <path
       style="opacity:1;fill:#efefef;fill-opacity:0.64419478;stroke:none;stroke-width:0.4049494;stroke-miterlimit:4;stroke-dasharray:none;stroke-opacity:1"
       d="M 6.7756225,88.612216 C 6.9754914,86.819881 7.5049657,69.793022 7.8852014,52.930322 8.0050521,47.615181 7.99011,42.66408 7.8519968,41.927873 7.4808989,39.949752 6.4641732,39.439276 3.0255629,39.504623 c -2.76939945,0.05263 -2.83756859,0.0334 -2.83756859,-0.800239 0,-0.59035 0.24818921,-0.913953 0.80357142,-1.047741 C 5.8887171,36.476945 33.685604,35.510621 35.003461,36.474262 c 0.682394,0.498979 0.67424,1.976069 -0.05497,9.959237 -0.21577,2.362149 -0.240757,2.410714 -1.240349,2.410714 h -1.020143 l -0.0013,-3.303571 C 32.685034,41.519973 32.06356,40.17246 29.938715,39.582407 29.187622,39.373835 25.26932,39.20445 21.170137,39.203348 l -7.410714,-0.002 -8.22e-4,2.946429 c -4.64e-4,1.620535 -0.106945,6.699643 -0.236652,11.286905 l -0.235831,8.340476 8.986743,-0.126191 8.986742,-0.126191 -9e-5,1.116984 c -1.2e-4,1.477599 -0.590915,1.900485 -3.304437,2.365292 -1.750289,0.299812 -3.650961,0.263452 -8.321321,-0.159189 -3.329097,-0.301264 -6.152284,-0.492757 -6.273749,-0.42554 -0.121465,0.06722 -0.325694,4.42491 -0.453842,9.68376 -0.128148,5.258854 -0.328298,10.87869 -0.444776,12.488525 -0.238277,3.293193 0.07379,3.01779 -3.9868802,3.518558 L 6.58245,90.344502 Z"
       id="path5728"
       inkscape:connector-curvature="0"
       transform="matrix(0.26458333,0,0,0.26458333,55.243584,105.62362)" />
    <path
       style="opacity:1;fill:#efefef;fill-opacity:0.64419478;stroke:none;stroke-width:0.4049494;stroke-miterlimit:4;stroke-dasharray:none;stroke-opacity:1"
       d="m 44.056192,89.949006 c -0.650799,-0.514782 -1.075714,-1.325129 -1.339285,-2.554122 -0.7978,-3.72001 -0.354439,-19.423539 1.37521,-48.708977 0.626628,-10.609723 0.684531,-11.076939 1.449569,-11.696429 0.515727,-0.41761 1.381422,-0.643335 2.453731,-0.639796 2.826545,0.0093 2.778316,-0.142522 2.060637,6.487978 -2.005059,18.524361 -2.801394,30.103717 -2.856945,41.542267 -0.04052,8.343586 0.03421,9.8216 0.554636,10.969432 0.786336,1.734322 1.904789,2.013972 4.906296,1.226736 1.420415,-0.372546 2.426758,-0.475936 2.632264,-0.270429 0.768204,0.768204 -5.548581,3.844193 -8.634884,4.204797 -1.327173,0.155064 -1.833569,0.04576 -2.601229,-0.561457 z"
       id="path5730"
       inkscape:connector-curvature="0"
       transform="matrix(0.26458333,0,0,0.26458333,55.243584,105.62362)" />
    <path
       style="opacity:1;fill:#efefef;fill-opacity:0.64419478;stroke:none;stroke-width:0.4049494;stroke-miterlimit:4;stroke-dasharray:none;stroke-opacity:1"
       d="m 82.716189,67.921594 c 0.01714,-0.416051 0.101765,-0.500678 0.215774,-0.215774 0.103168,0.257813 0.09048,0.565848 -0.02819,0.684524 -0.118676,0.118675 -0.203086,-0.09226 -0.187579,-0.46875 z"
       id="path5732"
       inkscape:connector-curvature="0"
       transform="matrix(0.26458333,0,0,0.26458333,55.243584,105.62362)" />
    <path
       style="opacity:1;fill:#efefef;fill-opacity:0.64419478;stroke:none;stroke-width:0.4049494;stroke-miterlimit:4;stroke-dasharray:none;stroke-opacity:1"
       d="m 61.437994,90.035214 c -1.574757,-0.832061 -2.316884,-1.568889 -3.073718,-3.051773 -0.897223,-1.757953 -0.897814,-5.30386 -0.0012,-7.246371 1.965929,-4.259219 7.971773,-7.241732 15.873655,-7.882886 3.001239,-0.243519 3.024903,-0.253133 3.237305,-1.315142 0.117681,-0.588406 0.213966,-2.340616 0.213966,-3.8938 0,-2.889102 -0.538253,-4.822339 -1.710049,-6.141969 -2.27685,-2.564095 -8.41817,-2.703805 -10.61138,-0.2414 -0.931232,1.045533 -0.949846,4.305933 -0.03448,6.040447 0.77691,1.472165 0.426455,1.814018 -1.867988,1.822138 -1.250285,0.0044 -1.753149,-0.20235 -2.633811,-1.083012 -0.973331,-0.973332 -1.069202,-1.259518 -0.906247,-2.705248 0.464204,-4.118412 6.261368,-7.866161 12.76396,-8.251643 3.888989,-0.230544 5.822199,0.283538 7.545052,2.00639 2.14525,2.14525 2.612721,4.392867 2.231821,10.730675 -0.171923,2.86064 -0.312587,7.61939 -0.312587,10.574999 0,5.857313 0.20976,6.606679 2.217574,7.922249 1.163597,0.762419 3.518016,0.738271 5.045751,-0.05175 1.212569,-0.627044 1.860116,-0.19606 1.093426,0.727744 -0.723786,0.872109 -3.758863,2.273276 -5.416225,2.500443 -4.788298,0.656309 -7.939525,-2.58569 -7.940224,-8.168947 -1.66e-4,-1.325893 -0.08066,-2.408808 -0.178874,-2.406477 -0.09821,0.0023 -0.708355,0.968713 -1.355868,2.147517 -1.597267,2.907841 -5.05295,6.52511 -7.30641,7.648057 -2.154827,1.073796 -5.179996,1.21453 -6.873436,0.319761 z m 7.98174,-4.30106 c 3.086328,-1.443926 6.417711,-6.099824 7.405734,-10.350162 l 0.464953,-2.000163 -2.926214,0.209279 c -3.493469,0.249849 -6.961833,1.267939 -8.614877,2.528777 -2.352853,1.794609 -3.343872,5.500017 -2.201943,8.23304 0.276239,0.66113 0.79856,1.374295 1.160715,1.584811 0.993781,0.577672 3.247664,0.479329 4.711632,-0.205582 z"
       id="path5734"
       inkscape:connector-curvature="0"
       transform="matrix(0.26458333,0,0,0.26458333,55.243584,105.62362)" />
    <path
       style="opacity:1;fill:#efefef;fill-opacity:0.64419478;stroke:none;stroke-width:0.4049494;stroke-miterlimit:4;stroke-dasharray:none;stroke-opacity:1"
       d="m 99.656202,90.183499 c -0.08373,-0.245536 -0.569725,-2.857143 -1.079995,-5.803572 -2.1245,-12.267401 -4.857013,-22.561235 -6.443254,-24.272817 -0.896409,-0.967241 -1.01804,-0.994895 -3.40159,-0.773367 -2.249546,0.209074 -2.471941,0.170321 -2.471941,-0.430743 0,-0.520852 0.660658,-0.85854 3.125,-1.597313 6.138816,-1.840323 7.00109,-1.666082 8.497275,1.717058 1.43797,3.251504 4.014403,14.650393 5.186483,22.946468 0.22895,1.620536 0.48178,2.946428 0.56184,2.946428 0.0801,0 1.16941,-1.566964 2.42076,-3.482142 2.81962,-4.315398 5.21999,-9.04356 6.44696,-12.698972 1.64803,-4.909823 1.14131,-10.110666 -1.18647,-12.17781 -1.15307,-1.023967 -0.94431,-1.283933 1.03105,-1.283933 6.53718,0 7.51452,5.731453 2.63097,15.428888 -1.42227,2.82425 -5.24614,9.129128 -7.21276,11.892541 -5.1567,7.245996 -5.83533,8.035714 -6.90537,8.035714 -0.5757,0 -1.115231,-0.200893 -1.198958,-0.446428 z"
       id="path5736"
       inkscape:connector-curvature="0"
       transform="matrix(0.26458333,0,0,0.26458333,55.243584,105.62362)" />
    <path
       style="opacity:1;fill:#efefef;fill-opacity:0.64419478;stroke:none;stroke-width:0.4049494;stroke-miterlimit:4;stroke-dasharray:none;stroke-opacity:1"
       d="m 131.5175,90.616129 c -5.74578,-0.966254 -9.90094,-7.033959 -9.90094,-14.45818 0,-8.057156 4.25128,-15.850959 10.25966,-18.808875 1.95791,-0.963875 2.83425,-1.170416 5.50851,-1.298274 3.00114,-0.143486 3.30948,-0.0884 5.47673,0.97854 6.03698,2.971995 8.7458,10.794198 6.61846,19.112013 -2.0111,7.863322 -7.24683,13.436549 -13.58965,14.465632 -1.27018,0.206079 -2.38978,0.357 -2.48799,0.33538 -0.0982,-0.02162 -0.94636,-0.168426 -1.88478,-0.326236 z m 7.34268,-3.324462 c 3.88137,-1.624893 6.26183,-7.987704 5.88343,-15.726035 -0.40744,-8.332453 -4.67322,-13.427569 -10.50922,-12.552406 -4.33396,0.649918 -7.26068,6.548967 -7.26068,14.63451 0,6.830936 2.13634,11.554554 6.11137,13.512699 1.46814,0.723221 4.21208,0.785574 5.7751,0.131232 z"
       id="path5738"
       inkscape:connector-curvature="0"
       transform="matrix(0.26458333,0,0,0.26458333,55.243584,105.62362)" />
    <path
       style="opacity:1;fill:#efefef;fill-opacity:0.64419478;stroke:none;stroke-width:0.4049494;stroke-miterlimit:4;stroke-dasharray:none;stroke-opacity:1"
       d="m 159.25377,86.99493 c 0.43783,-6.102879 0.92132,-17.562004 0.92781,-21.990003 0.006,-3.98815 -0.0606,-4.442049 -0.75187,-5.133286 -0.64906,-0.649059 -1.02204,-0.726063 -2.58929,-0.534587 -1.00705,0.123035 -2.17047,0.316506 -2.58539,0.429936 -0.55164,0.150809 -0.80361,0.01798 -0.93756,-0.494223 -0.15933,-0.609269 0.21786,-0.822451 2.89725,-1.637505 7.51595,-2.286308 8.97327,-1.904693 8.97327,2.349738 0,2.118992 -0.96073,14.912311 -1.23522,16.448499 -0.28218,1.579209 0.45637,1.128418 0.87769,-0.535715 3.1436,-12.416845 8.13725,-19.910714 13.26779,-19.910714 2.15148,0 3.23473,0.494925 4.03004,1.841273 0.75048,1.270474 0.5402,2.990301 -0.53235,4.353823 l -0.71613,0.910416 -1.27395,-0.751647 c -2.51258,-1.482461 -5.75417,-0.659552 -7.70211,1.95525 -3.18838,4.279924 -6.26008,13.316239 -7.46322,21.955282 l -0.4596,3.300111 -1.27147,0.198782 c -0.69931,0.10933 -1.81666,0.283174 -2.483,0.38632 l -1.21153,0.187538 z"
       id="path5740"
       inkscape:connector-curvature="0"
       transform="matrix(0.26458333,0,0,0.26458333,55.243584,105.62362)" />
    <path
       style="opacity:1;fill:#efefef;fill-opacity:0.64419478;stroke:none;stroke-width:0.4049494;stroke-miterlimit:4;stroke-dasharray:none;stroke-opacity:1"
       d="m 190.90228,90.606402 c -2.76779,-0.302411 -5.28275,-1.040139 -6.69058,-1.962589 -0.7653,-0.501439 -0.80925,-0.758672 -0.80632,-4.718547 0.002,-2.303507 0.10445,-5.031946 0.22832,-6.063196 0.20733,-1.726082 0.29927,-1.874893 1.15761,-1.873639 0.91882,0.0014 0.93305,0.04069 0.97734,2.702421 0.0599,3.597304 1.34891,6.266875 3.73985,7.745075 2.20741,1.364736 5.66201,1.894757 8.79439,1.349275 5.90892,-1.028993 9.1403,-4.551564 9.18474,-10.012418 0.0411,-5.051778 -2.24753,-7.634205 -11.24221,-12.685387 -6.16257,-3.460739 -9.09716,-5.990063 -10.45166,-9.00828 -3.82406,-8.521153 1.84594,-18.761316 11.53924,-20.840158 2.74149,-0.587945 8.29325,-0.235095 10.64742,0.676712 3.79947,1.471593 3.63691,1.160208 3.63068,6.954632 -0.003,2.794579 -0.14281,5.297759 -0.31066,5.562622 -0.16785,0.264863 -0.60694,0.423456 -0.97576,0.352428 -0.52768,-0.101623 -0.72703,-0.581146 -0.93554,-2.250412 -0.38941,-3.117398 -0.91835,-4.418072 -2.49011,-6.123229 -1.91485,-2.077372 -4.06964,-2.77569 -7.91357,-2.564611 -3.27393,0.179779 -5.05924,0.914572 -6.90226,2.840816 -1.6986,1.775305 -2.59248,4.037838 -2.60165,6.585145 -0.0192,5.331369 2.31595,8.094719 10.70644,12.66973 9.59632,5.232502 12.04678,7.949415 12.42393,13.774824 0.70274,10.854543 -8.85885,18.292879 -21.70964,16.888786 z"
       id="path5742"
       inkscape:connector-curvature="0"
       transform="matrix(0.26458333,0,0,0.26458333,55.243584,105.62362)" />
    <path
       style="opacity:1;fill:#efefef;fill-opacity:0.64419478;stroke:none;stroke-width:0.4049494;stroke-miterlimit:4;stroke-dasharray:none;stroke-opacity:1"
       d="m 228.01672,90.626234 c -4.43974,-0.751439 -8.40833,-4.895601 -9.58724,-10.011404 -0.53783,-2.333865 -0.45354,-7.322176 0.16871,-9.984903 1.35901,-5.815403 5.18603,-11.055381 9.69578,-13.275523 2.62188,-1.290747 6.67337,-1.746921 9.27352,-1.044144 4.81153,1.30048 8.51177,6.631694 8.94733,12.891096 0.55146,7.925031 -3.77018,16.704955 -9.80598,19.922001 -1.65373,0.881428 -5.96162,2.020728 -6.87799,1.819008 -0.0982,-0.02162 -0.91457,-0.163879 -1.81413,-0.316131 z m 7.29371,-3.342692 c 3.13991,-1.311938 5.45206,-6.368562 5.8425,-12.777435 0.47616,-7.815824 -2.42818,-13.964542 -7.23136,-15.309349 -5.56662,-1.558558 -9.40846,2.672468 -10.51543,11.580676 -0.89018,7.163573 1.49605,13.957697 5.67731,16.164575 1.812,0.956377 4.4139,1.099085 6.22698,0.341533 z"
       id="path5744"
       inkscape:connector-curvature="0"
       transform="matrix(0.26458333,0,0,0.26458333,55.243584,105.62362)" />
    <path
       style="opacity:1;fill:#efefef;fill-opacity:0.64419478;stroke:none;stroke-width:0.4049494;stroke-miterlimit:4;stroke-dasharray:none;stroke-opacity:1"
       d="m 297.56524,90.22545 c -1.93088,-1.122396 -2.34,-5.756276 -1.4867,-16.83894 0.59179,-7.686035 0.59264,-8.224811 0.0154,-9.736219 -0.68767,-1.800626 -1.37889,-2.306078 -3.15365,-2.306078 -3.36503,0 -8.1904,7.693282 -10.75231,17.142857 -0.7298,2.69184 -1.98697,9.479753 -1.99791,10.787388 -10e-4,0.138421 -0.56461,0.339314 -1.25211,0.446429 -0.6875,0.107115 -1.81433,0.282738 -2.50407,0.390272 l -1.25406,0.195518 0.18926,-2.427661 c 0.58476,-7.500767 1.24588,-21.459708 1.06099,-22.401811 -0.63012,-3.210686 -2.0912,-4.497504 -4.28463,-3.773605 -4.58613,1.51356 -10.59118,14.641416 -11.46895,25.072679 l -0.2317,2.753494 -1.64627,0.212433 c -0.90546,0.116838 -2.0311,0.292902 -2.50143,0.391254 l -0.85514,0.178821 0.2102,-3.144748 c 0.11561,-1.729612 0.41089,-8.139307 0.65617,-14.243767 0.3677,-9.151118 0.36327,-11.298682 -0.0253,-12.236686 -0.58766,-1.418747 -1.59481,-1.69915 -4.21381,-1.17318 -2.58453,0.519048 -2.59557,0.517957 -2.59557,-0.25625 0,-1.110488 8.83408,-3.560397 10.52297,-2.918281 1.74154,0.662131 1.82491,1.447193 1.13262,10.665419 -0.34889,4.645612 -0.72083,8.808175 -0.82654,9.250139 -0.10571,0.441964 -0.0463,0.803572 0.13211,0.803572 0.17837,0 0.68818,-1.245536 1.13291,-2.767858 1.74619,-5.977312 4.73069,-11.872933 7.52005,-14.855234 2.09758,-2.242669 4.00043,-3.221482 6.27873,-3.229728 2.33662,-0.0085 3.48883,0.783524 4.679,3.216146 1.21155,2.476314 1.44341,6.335544 0.7753,12.904531 -0.26471,2.602678 -0.39486,4.731383 -0.28922,4.730455 0.10564,-9.28e-4 0.80194,-1.8764 1.54734,-4.167715 2.35129,-7.227679 5.77469,-13.190459 8.74709,-15.235417 3.72063,-2.559724 7.38719,-2.183215 9.32852,0.957919 1.42307,2.302565 1.61412,4.702497 0.97098,12.196901 -0.72557,8.455024 -0.74795,13.014869 -0.0718,14.633058 0.67376,1.612532 2.28462,1.95041 5.30079,1.11184 4.86171,-1.351675 2.35941,1.161489 -3.02121,3.03433 -3.13896,1.092585 -4.69047,1.264121 -5.76808,0.637723 z"
       id="path5746"
       inkscape:connector-curvature="0"
       transform="matrix(0.26458333,0,0,0.26458333,55.243584,105.62362)" />
    <path
       style="opacity:1;fill:#efefef;fill-opacity:0.64419478;stroke:none;stroke-width:0.10714286;stroke-miterlimit:4;stroke-dasharray:none;stroke-opacity:1"
       d="m 140.51315,129.56943 c -1.23574,-0.27222 -2.24245,-1.38435 -2.54961,-2.81659 -0.15658,-0.73014 -0.0496,-2.06619 0.23131,-2.88893 0.30755,-0.90074 0.64721,-1.4662 1.28033,-2.13144 1.49744,-1.57343 3.95765,-1.74806 4.90844,-0.34842 0.18904,0.27829 0.21761,0.41818 0.18698,0.91555 -0.0296,0.48115 -0.0879,0.65165 -0.32302,0.94494 -0.56995,0.71103 -2.11757,1.30144 -4.0986,1.56362 l -0.8977,0.11881 0.0272,0.5189 c 0.0648,1.23468 0.67567,2.41146 1.50487,2.89887 0.38139,0.22418 0.55596,0.26546 1.11374,0.2633 0.76481,-0.003 1.28416,-0.20262 1.92244,-0.73908 0.45573,-0.38302 0.56077,-0.41492 0.64485,-0.1958 0.0702,0.18288 -0.78461,1.08361 -1.34196,1.41409 -0.84468,0.50084 -1.75825,0.66966 -2.6093,0.48218 z m 0.62186,-5.40214 c 1.23249,-0.32165 1.94328,-0.93196 1.94328,-1.66857 0,-0.86157 -0.51872,-1.3994 -1.3503,-1.40005 -1.05369,-8.2e-4 -1.8787,0.87804 -2.28076,2.42963 -0.24083,0.92942 -0.24982,0.91389 0.48914,0.8449 0.35081,-0.0328 0.8902,-0.12541 1.19864,-0.20591 z"
       id="path5748"
       inkscape:connector-curvature="0" />
  </g>
</svg>
