<?xml version="1.0" encoding="UTF-8" standalone="no"?>
<!-- Created with Inkscape (http://www.inkscape.org/) -->

<svg
   xmlns:dc="http://purl.org/dc/elements/1.1/"
   xmlns:cc="http://creativecommons.org/ns#"
   xmlns:rdf="http://www.w3.org/1999/02/22-rdf-syntax-ns#"
   xmlns:svg="http://www.w3.org/2000/svg"
   xmlns="http://www.w3.org/2000/svg"
   xmlns:sodipodi="http://sodipodi.sourceforge.net/DTD/sodipodi-0.dtd"
   xmlns:inkscape="http://www.inkscape.org/namespaces/inkscape"
   width="93.977463mm"
   height="18.013412mm"
   viewBox="0 0 93.977464 18.013413"
   version="1.1"
   id="svg1102"
   inkscape:version="0.92.3 (2405546, 2018-03-11)"
   sodipodi:docname="logo-mini.svg"
   inkscape:export-filename="D:\praca\karolProjekt\Unnamed-webapp\src\assets\ux\logo.png"
   inkscape:export-xdpi="96"
   inkscape:export-ydpi="96">
  <defs
     id="defs1096" />
  <sodipodi:namedview
     id="base"
     pagecolor="#ffffff"
     bordercolor="#666666"
     borderopacity="1.0"
     inkscape:pageopacity="0.0"
     inkscape:pageshadow="2"
     inkscape:zoom="2.8"
     inkscape:cx="198.81577"
     inkscape:cy="17.445906"
     inkscape:document-units="mm"
     inkscape:current-layer="layer1"
     showgrid="false"
     showguides="false"
     fit-margin-top="0"
     fit-margin-left="0"
     fit-margin-right="0"
     fit-margin-bottom="0"
     inkscape:window-width="1920"
     inkscape:window-height="1017"
     inkscape:window-x="-8"
     inkscape:window-y="-8"
     inkscape:window-maximized="1" />
  <metadata
     id="metadata1099">
    <rdf:RDF>
      <cc:Work
         rdf:about="">
        <dc:format>image/svg+xml</dc:format>
        <dc:type
           rdf:resource="http://purl.org/dc/dcmitype/StillImage" />
        <dc:title></dc:title>
      </cc:Work>
    </rdf:RDF>
  </metadata>
  <g
     inkscape:label="Layer 1"
     inkscape:groupmode="layer"
     id="layer1"
     transform="translate(-35.558514,-109.97062)">
    <flowRoot
       xml:space="preserve"
       id="flowRoot1736"
       style="font-style:normal;font-variant:normal;font-weight:normal;font-stretch:normal;font-size:40px;line-height:1.25;font-family:Gabriola;-inkscape-font-specification:Gabriola;letter-spacing:0px;word-spacing:0px;fill:#efefef;fill-opacity:0.64419478;stroke:none;stroke-width:0.18897638;stroke-miterlimit:4;stroke-dasharray:none"
       transform="matrix(0.33617202,0,0,0.33617202,-35.1144,-37.683565)"><flowRegion
         id="flowRegion1738"
         style="font-style:normal;font-variant:normal;font-weight:normal;font-stretch:normal;font-family:Gabriola;-inkscape-font-specification:Gabriola;fill:#efefef;fill-opacity:0.64419478;stroke-width:0.18897638;stroke-miterlimit:4;stroke-dasharray:none"><rect
           id="rect1740"
           width="485.71429"
           height="90"
           x="146.42857"
           y="458.94824"
           style="font-style:normal;font-variant:normal;font-weight:normal;font-stretch:normal;font-family:Gabriola;-inkscape-font-specification:Gabriola;fill:#efefef;fill-opacity:0.64419478;stroke-width:0.18897638;stroke-miterlimit:4;stroke-dasharray:none" /></flowRegion><flowPara
         id="flowPara1742" /></flowRoot>    <path
       style="opacity:1;fill:#efefef;fill-opacity:0.64313725;stroke:none;stroke-width:0.11094896;stroke-miterlimit:4;stroke-dasharray:none;stroke-opacity:1"
       d="m 62.945111,120.89553 c 0.0051,-0.10419 0.03048,-0.12553 0.06462,-0.0541 0.03091,0.0646 0.0271,0.14181 -0.0085,0.17157 -0.03554,0.0299 -0.06082,-0.0231 -0.05617,-0.1174 z"
       id="path5732"
       inkscape:connector-curvature="0" />
    <path
       style="opacity:1;fill:#efefef;fill-opacity:0.64313725;stroke:none;stroke-width:0.12842956;stroke-miterlimit:4;stroke-dasharray:none;stroke-opacity:1"
       d="m 37.895303,127.3881 c -0.845803,-0.23637 -1.245363,-0.24649 -1.818252,-0.0461 -0.246604,0.0863 -0.469235,0.13933 -0.494733,0.11791 -0.122318,-0.10241 0.239162,-0.58604 0.799923,-1.07028 0.341659,-0.29504 0.679698,-0.6914 0.751196,-0.88079 0.206878,-0.548 0.681147,-2.85153 1.372301,-6.66529 0.1446,-0.79788 0.289051,-1.51235 0.321006,-1.58767 0.06804,-0.16039 0.554297,-2.78057 0.554297,-2.98681 0,-0.38589 -2.243801,-0.0199 -3.023104,0.49318 l -0.319805,0.21052 v -0.28563 c 0,-0.38591 0.997758,-1.19068 1.692089,-1.36477 0.977605,-0.24513 2.302469,-0.32021 4.003239,-0.2269 2.931954,0.16087 4.569533,0.12846 5.385796,-0.1066 0.836301,-0.24081 0.804774,-0.23659 0.804774,-0.10723 0,0.22898 -0.786119,0.82345 -1.391978,1.05266 -0.622084,0.23531 -0.756144,0.24507 -3.026995,0.22035 -1.55978,-0.0172 -2.403708,0.0114 -2.456498,0.0831 -0.04423,0.0598 -0.181247,0.67772 -0.304486,1.37297 -0.123245,0.69523 -0.312041,1.66041 -0.419559,2.14485 -0.107516,0.48443 -0.210567,1.13725 -0.228999,1.4507 l -0.03352,0.56994 2.445276,0.0281 c 1.567893,0.0179 2.445277,0.0662 2.445277,0.13446 0,0.21197 -1.204078,1.11 -1.581283,1.17934 -0.210921,0.0387 -0.596071,0.021 -0.85589,-0.0394 -0.259817,-0.0602 -0.986701,-0.11003 -1.615295,-0.11029 -1.085179,-4.9e-4 -1.145924,0.0114 -1.202854,0.23258 -0.03297,0.12821 -0.229653,1.11912 -0.437058,2.20196 -0.24691,1.28913 -0.469849,2.12369 -0.645765,2.41742 -0.346616,0.57874 -0.218814,0.65878 0.9833,0.61573 0.493697,-0.0178 0.897632,-0.005 0.897632,0.0266 0,0.1193 -0.941426,0.8087 -1.324825,0.97014 -0.464987,0.19581 -0.407336,0.1978 -1.275214,-0.0447 z"
       id="path911"
       inkscape:connector-curvature="0" />
    <path
       style="opacity:1;fill:#efefef;fill-opacity:0.64313725;stroke:none;stroke-width:0.12842956;stroke-miterlimit:4;stroke-dasharray:none;stroke-opacity:1"
       d="m 45.700646,127.53465 c -0.226681,-0.45407 -0.224078,-1.0884 0.0097,-2.33484 0.204196,-1.08925 0.65073,-3.59303 1.110912,-6.22903 0.896509,-5.13538 1.511002,-6.72938 3.095779,-8.03042 0.955407,-0.78435 1.547666,-0.97425 3.024115,-0.96966 0.931043,0.003 1.033526,0.021 0.835049,0.1468 -0.12444,0.0789 -0.514442,0.17564 -0.866681,0.21492 -0.913072,0.10177 -1.756514,0.43109 -2.209074,0.86247 -0.802618,0.76507 -1.519577,2.59438 -1.89473,4.83439 -0.165658,0.98911 -0.407539,2.30072 -0.926821,5.02567 -1.022203,5.36403 -1.031255,5.49194 -0.388597,5.49194 0.443176,0 1.114048,-0.5921 1.588807,-1.40228 0.385534,-0.65787 0.576509,-0.73303 0.452312,-0.17794 -0.178561,0.79804 -0.81305,1.64996 -1.742231,2.33926 -0.633124,0.46969 -0.905196,0.58022 -1.438412,0.58439 -0.421628,0.004 -0.489284,-0.0337 -0.650012,-0.35567 z"
       id="path913"
       inkscape:connector-curvature="0" />
    <path
       style="opacity:1;fill:#efefef;fill-opacity:0.64313725;stroke:none;stroke-width:0.12842956;stroke-miterlimit:4;stroke-dasharray:none;stroke-opacity:1"
       d="m 51.730887,127.60462 c -0.68566,-0.13803 -0.989341,-1.3102 -0.761665,-2.93994 0.502963,-3.60029 3.627655,-6.86058 6.787774,-7.08232 0.888363,-0.0623 1.830279,0.009 2.119291,0.15937 0.124033,0.0648 0.128629,0.1506 0.02065,0.38555 -0.129996,0.28287 -0.299724,0.94203 -0.864937,3.3591 -0.126612,0.54144 -0.314103,1.33415 -0.416659,1.76157 -0.527374,2.19805 -0.572028,2.46916 -0.450716,2.73618 0.09205,0.20263 0.209101,0.26886 0.475057,0.26886 0.437153,0 0.760057,-0.27767 1.336133,-1.14896 l 0.439279,-0.66441 -0.0739,0.4499 c -0.207769,1.26509 -1.776815,2.71057 -2.942295,2.71057 -0.394961,0 -0.494219,-0.0442 -0.594818,-0.26579 -0.177641,-0.39107 -0.138924,-1.20788 0.111886,-2.36044 0.19748,-0.90749 0.201131,-1.02679 0.03305,-1.08076 -0.103907,-0.0334 -0.208995,-0.0102 -0.233522,0.0513 -0.02452,0.0618 -0.373802,0.50687 -0.776169,0.98952 -1.551695,1.86127 -3.159804,2.8818 -4.208451,2.67072 z m 2.015912,-1.59495 c 0.578313,-0.20281 1.815786,-1.36025 2.465365,-2.30591 0.999218,-1.45468 1.755735,-3.14248 1.915927,-4.2745 l 0.07038,-0.4973 -0.625747,-0.22532 c -0.34416,-0.12388 -0.797101,-0.22526 -1.006533,-0.22526 -0.572298,0 -1.446581,0.38854 -1.923496,0.85487 -0.491393,0.48046 -1.305002,1.76172 -1.596731,2.51449 -0.262126,0.67641 -0.696013,2.58733 -0.696013,3.06542 0,0.53448 0.236322,1.02796 0.541702,1.13117 0.362642,0.12261 0.403354,0.12083 0.855155,-0.0377 z"
       id="path915"
       inkscape:connector-curvature="0" />
    <path
       style="opacity:1;fill:#efefef;fill-opacity:0.64313725;stroke:none;stroke-width:0.12842956;stroke-miterlimit:4;stroke-dasharray:none;stroke-opacity:1"
       d="m 63.580005,127.3558 c -0.04133,-0.0902 -0.0763,-0.61474 -0.07771,-1.16575 -0.0061,-2.39866 -0.401021,-5.5801 -0.807368,-6.50408 -0.102738,-0.23363 -0.327692,-0.53556 -0.499888,-0.67095 -0.293095,-0.23044 -0.334401,-0.23617 -0.646895,-0.0897 -0.228379,0.10711 -0.412347,0.34103 -0.582473,0.74089 -0.43418,1.02046 -0.59434,0.85333 -0.248169,-0.259 0.488427,-1.56943 1.799544,-2.35951 2.775245,-1.67238 0.739791,0.52098 1.087427,1.99626 1.585406,6.72803 l 0.09815,0.9326 0.385024,0.0314 c 0.32699,0.0267 0.469631,-0.0474 0.946335,-0.49111 1.010369,-0.94052 2.094699,-2.96556 2.265837,-4.23156 0.07719,-0.57107 0.04981,-0.70424 -0.25053,-1.218 -0.211319,-0.36148 -0.310628,-0.66545 -0.266017,-0.81422 0.08246,-0.27495 1.077371,-1.20356 1.289502,-1.20356 0.345272,0 0.582376,0.55326 0.575414,1.3427 -0.01194,1.34546 -0.954812,3.46862 -2.51011,5.65177 -0.696762,0.97805 -2.119728,2.41216 -2.727967,2.74933 -0.609311,0.33778 -1.185657,0.40127 -1.30379,0.14361 z"
       id="path917"
       inkscape:connector-curvature="0" />
    <path
       style="opacity:1;fill:#efefef;fill-opacity:0.64313725;stroke:none;stroke-width:0.12842956;stroke-miterlimit:4;stroke-dasharray:none;stroke-opacity:1"
       d="m 71.530524,127.54336 c -1.978306,-0.22309 -2.19783,-3.46311 -0.431386,-6.36696 0.829637,-1.36383 2.583934,-3.02285 3.639914,-3.44224 1.225188,-0.48657 2.15203,-0.29151 2.724327,0.57335 0.353877,0.53479 0.370345,0.61525 0.369141,1.80324 -0.0011,1.1392 -0.03645,1.33034 -0.421135,2.27967 -1.308065,3.22822 -3.775664,5.39039 -5.880861,5.15294 z m 2.634333,-1.41383 c 0.626849,-0.33118 1.293491,-1.19158 1.702546,-2.19736 0.284293,-0.69902 0.340231,-1.03712 0.389076,-2.35168 0.06311,-1.69838 -0.06095,-2.19721 -0.664396,-2.67168 -0.443682,-0.34886 -1.322261,-0.34542 -1.937797,0.008 -1.211481,0.69474 -2.193072,2.92865 -2.19586,4.99734 -0.0015,1.04919 0.20297,1.68725 0.674526,2.1057 0.350611,0.31113 0.484963,0.36043 0.98212,0.36043 0.395703,0 0.724234,-0.0784 1.049785,-0.25034 z"
       id="path919"
       inkscape:connector-curvature="0" />
    <path
       style="opacity:1;fill:#efefef;fill-opacity:0.64313725;stroke:none;stroke-width:0.12842956;stroke-miterlimit:4;stroke-dasharray:none;stroke-opacity:1"
       d="m 79.376568,127.53583 c 0,-0.0249 0.05477,-0.16562 0.12172,-0.313 0.06695,-0.14736 0.265231,-0.95477 0.440637,-1.79422 0.175405,-0.83947 0.483947,-2.31901 0.685648,-3.28786 0.231454,-1.11177 0.354357,-2.02914 0.333184,-2.48693 -0.03117,-0.67365 -0.05436,-0.7278 -0.325482,-0.75992 -0.349496,-0.0414 -0.924856,0.3804 -1.257996,0.92229 -0.124973,0.20328 -0.324121,0.43642 -0.442537,0.51811 -0.19849,0.13691 -0.208084,0.12414 -0.122852,-0.16237 0.277891,-0.93447 1.904283,-2.46705 2.760787,-2.60153 0.376572,-0.0591 0.487,-0.0325 0.676131,0.16298 0.284985,0.29454 0.306559,1.52433 0.04275,2.43855 -0.357803,1.24023 -0.121568,1.46484 0.517711,0.49221 1.592096,-2.42224 3.599351,-3.69933 4.594636,-2.9233 0.498193,0.38845 0.228464,1.59928 -0.501168,2.24976 -0.351866,0.31368 -0.416442,0.29511 -0.416442,-0.11981 0,-0.19416 -0.07373,-0.42731 -0.163738,-0.51812 -0.208141,-0.20989 -1.017138,-0.21664 -1.489023,-0.013 -1.428147,0.6181 -3.15679,3.68368 -3.419768,6.06463 -0.09816,0.88868 -0.2373,1.16467 -0.816517,1.6196 -0.536614,0.42147 -1.217726,0.70749 -1.217726,0.51138 z"
       id="path921"
       inkscape:connector-curvature="0" />
    <path
       style="opacity:1;fill:#efefef;fill-opacity:0.64313725;stroke:none;stroke-width:0.12842956;stroke-miterlimit:4;stroke-dasharray:none;stroke-opacity:1"
       d="m 90.277395,127.94217 c -1.698904,-0.16628 -3.121425,-1.55875 -2.724661,-2.66712 0.13888,-0.38796 0.929568,-1.26469 1.140571,-1.26469 0.05973,0 0.143564,0.17487 0.186354,0.38858 0.133738,0.66786 0.42254,1.32434 0.804172,1.82797 0.476718,0.62914 1.167524,0.89211 2.343495,0.89211 1.940684,0 2.976339,-0.901 2.976339,-2.58938 0,-1.22897 -0.328443,-1.75246 -2.406208,-3.83517 -0.938127,-0.94037 -1.820058,-1.89629 -1.959844,-2.12424 -0.576388,-0.94007 -0.371234,-2.64205 0.447634,-3.71338 1.191225,-1.55854 3.860874,-2.26199 5.824898,-1.53488 1.08813,0.40286 1.333592,1.29675 0.657825,2.39575 -0.411169,0.66872 -0.61164,0.6119 -0.774603,-0.21959 -0.2486,-1.26855 -0.790016,-1.64172 -2.382741,-1.64232 -0.777895,-3e-4 -1.142257,0.049 -1.504992,0.20397 -0.911178,0.38903 -1.318414,1.09246 -1.210279,2.09046 0.08613,0.7956 0.434049,1.28028 2.060977,2.87154 2.110165,2.06391 2.528412,2.65708 2.737663,3.88265 0.293857,1.72104 -0.949829,3.62175 -2.942885,4.49753 -1.198111,0.5265 -2.023051,0.66262 -3.273715,0.54021 z"
       id="path923"
       inkscape:connector-curvature="0" />
    <path
       style="opacity:1;fill:#efefef;fill-opacity:0.64313725;stroke:none;stroke-width:0.12842956;stroke-miterlimit:4;stroke-dasharray:none;stroke-opacity:1"
       d="m 99.828508,127.60456 c -1.918398,-0.21635 -2.183592,-3.12206 -0.557692,-6.11055 0.539904,-0.99238 1.473664,-2.07904 2.446294,-2.84683 1.03134,-0.81416 1.42375,-1.00342 2.25042,-1.08535 1.10961,-0.10991 1.61911,0.24448 2.02861,1.41136 0.45123,1.28573 0.0127,3.22039 -1.19227,5.26087 -1.29828,2.19834 -3.30642,3.55873 -4.975362,3.3705 z m 2.396922,-1.31622 c 1.3301,-0.57566 2.35869,-2.73108 2.35869,-4.94266 0,-1.59513 -0.34672,-2.34352 -1.19416,-2.5776 -1.52883,-0.42228 -3.10126,1.37546 -3.522992,4.02774 -0.269781,1.69667 0.0324,3.04406 0.781072,3.48295 0.34868,0.20441 1.11645,0.20906 1.57739,0.009 z"
       id="path925"
       inkscape:connector-curvature="0" />
    <path
       style="opacity:1;fill:#efefef;fill-opacity:0.64313725;stroke:none;stroke-width:0.12842956;stroke-miterlimit:4;stroke-dasharray:none;stroke-opacity:1"
       d="m 118.33527,127.75592 c -0.62762,-0.19431 -0.62201,-0.97752 0.0271,-3.77367 0.83557,-3.59963 0.92734,-4.27984 0.62891,-4.66104 -0.2525,-0.32252 -0.49836,-0.32764 -1.09992,-0.0227 -0.67784,0.34344 -1.4787,1.21322 -2.11001,2.29162 -0.72228,1.23375 -0.9742,1.93106 -1.4584,4.03678 -0.38932,1.69302 -0.41399,1.75429 -0.78287,1.94253 -0.43388,0.22143 -1.06411,0.26056 -1.05725,0.0657 0.003,-0.0712 0.0851,-0.45594 0.18369,-0.85489 0.5413,-2.19148 1.14819,-5.34774 1.24456,-6.47249 0.0916,-1.06826 -0.0436,-1.31432 -0.65971,-1.20107 -1.36769,0.25139 -3.39029,3.08309 -3.93229,5.50533 -0.50342,2.24979 -0.54168,2.33572 -1.26174,2.83246 -0.48503,0.33459 -0.90296,0.41854 -0.90296,0.18131 0,-0.0765 0.11283,-0.50768 0.25053,-0.95848 0.27333,-0.89419 0.62412,-2.47868 0.99587,-4.49822 0.58005,-3.15108 0.58001,-3.14376 0.0127,-3.08878 -0.25864,0.025 -0.47681,0.21665 -1.01054,0.88753 -0.37437,0.47057 -0.70059,0.80561 -0.72492,0.74448 -0.0243,-0.0611 0.13905,-0.42281 0.36309,-0.80379 0.46696,-0.79403 1.84203,-2.03839 2.37321,-2.14759 0.9647,-0.19834 1.11762,0.36983 0.70903,2.63414 -0.0967,0.53564 -0.0988,0.79743 -0.008,0.87388 0.0718,0.0601 0.14854,0.0889 0.17068,0.0643 0.0221,-0.0247 0.41238,-0.5182 0.8672,-1.09667 1.29213,-1.64342 2.58717,-2.52319 3.71416,-2.52319 0.7376,0 0.95256,0.69793 0.65438,2.12468 -0.10724,0.5127 -0.19499,0.99045 -0.19522,1.0617 -7e-4,0.33019 0.38443,0.0601 0.96088,-0.67356 1.48462,-1.88927 3.44594,-2.98156 4.16301,-2.31842 0.51978,0.48068 0.39866,1.46076 -0.79798,6.45734 -0.40982,1.71124 -0.33228,2.15612 0.37582,2.15612 0.29379,0 0.96146,-0.64285 1.28604,-1.2382 0.21387,-0.39229 0.26437,-0.43226 0.30037,-0.23775 0.0988,0.5345 -0.92291,1.86718 -1.85983,2.42553 -0.44717,0.26651 -1.07348,0.39242 -1.41928,0.28535 z"
       id="path927"
       inkscape:connector-curvature="0" />
    <path
       style="opacity:1;fill:#edebe8;fill-opacity:0.97474748;stroke:none;stroke-width:0.3850413;stroke-miterlimit:4;stroke-dasharray:none;stroke-opacity:1"
       d=""
       id="path929"
       inkscape:connector-curvature="0" />
    <path
       style="opacity:1;fill:#efefef;fill-opacity:0.64313725;stroke:none;stroke-width:0.12842956;stroke-miterlimit:4;stroke-dasharray:none;stroke-opacity:1"
       d="m 124.28588,127.63766 c -0.56872,-0.0663 -1.15234,-0.44763 -1.47375,-0.9628 -0.88733,-1.4222 -0.0941,-4.6079 1.6941,-6.80443 1.14358,-1.40467 2.61217,-2.27968 3.82604,-2.27968 0.94474,0 1.37385,0.66377 1.14182,1.76626 -0.35956,1.70836 -2.23693,3.4042 -4.82864,4.36172 l -0.66252,0.24477 0.0576,0.69723 c 0.10393,1.25561 0.96814,1.80445 2.41479,1.53349 0.82749,-0.15499 1.56134,-0.61988 2.19547,-1.39079 0.61432,-0.74687 0.72978,-0.53702 0.21302,0.3872 -0.65945,1.17944 -2.26395,2.28314 -3.55593,2.44607 -0.27239,0.0343 -0.73232,0.0347 -1.02209,9.5e-4 z m 1.8153,-4.91271 c 0.65808,-0.2791 1.47754,-0.99311 1.80731,-1.57474 0.28906,-0.50981 0.38394,-1.50002 0.18271,-1.90663 -0.34673,-0.70055 -1.30936,-0.64538 -2.16965,0.12426 -0.81504,0.72925 -1.66596,2.4358 -1.66596,3.34114 0,0.25515 0.0343,0.26999 0.62315,0.26999 0.41609,0 0.82231,-0.0845 1.22244,-0.25415 z"
       id="path931"
       inkscape:connector-curvature="0" />
  </g>
</svg>
