<?xml version="1.0" encoding="UTF-8" standalone="no"?>
<!-- Created with Inkscape (http://www.inkscape.org/) -->

<svg
   xmlns:dc="http://purl.org/dc/elements/1.1/"
   xmlns:cc="http://creativecommons.org/ns#"
   xmlns:rdf="http://www.w3.org/1999/02/22-rdf-syntax-ns#"
   xmlns:svg="http://www.w3.org/2000/svg"
   xmlns="http://www.w3.org/2000/svg"
   xmlns:sodipodi="http://sodipodi.sourceforge.net/DTD/sodipodi-0.dtd"
   xmlns:inkscape="http://www.inkscape.org/namespaces/inkscape"
   width="24.549883mm"
   height="27.260506mm"
   viewBox="0 0 24.549883 27.260506"
   version="1.1"
   id="svg841"
   inkscape:version="0.92.3 (2405546, 2018-03-11)"
   sodipodi:docname="logo-icons.svg"
   inkscape:export-filename="C:\Users\Izabella\Desktop\logo-icons.png"
   inkscape:export-xdpi="96"
   inkscape:export-ydpi="96">
  <defs
     id="defs835" />
  <sodipodi:namedview
     id="base"
     pagecolor="#ffffff"
     bordercolor="#666666"
     borderopacity="1.0"
     inkscape:pageopacity="0.0"
     inkscape:pageshadow="2"
     inkscape:zoom="5.6"
     inkscape:cx="71.967352"
     inkscape:cy="29.507177"
     inkscape:document-units="mm"
     inkscape:current-layer="layer1"
     showgrid="false"
     fit-margin-top="0"
     fit-margin-left="0"
     fit-margin-right="0"
     fit-margin-bottom="0"
     inkscape:window-width="1920"
     inkscape:window-height="1017"
     inkscape:window-x="-8"
     inkscape:window-y="-8"
     inkscape:window-maximized="1" />
  <metadata
     id="metadata838">
    <rdf:RDF>
      <cc:Work
         rdf:about="">
        <dc:format>image/svg+xml</dc:format>
        <dc:type
           rdf:resource="http://purl.org/dc/dcmitype/StillImage" />
        <dc:title></dc:title>
      </cc:Work>
    </rdf:RDF>
  </metadata>
  <g
     inkscape:label="Layer 1"
     inkscape:groupmode="layer"
     id="layer1"
     transform="translate(44.671658,-146.82586)">
    <path
       style="opacity:1;fill:#f9f9f9;fill-opacity:0.71212116;stroke:none;stroke-width:1.28118587;stroke-miterlimit:4;stroke-dasharray:none;stroke-opacity:1"
       d="m -42.825856,173.82399 c -0.111138,-0.0561 -0.227568,-0.20213 -0.258524,-0.32455 -0.06347,-0.25186 0.02455,-3.21387 0.149203,-5.01719 0.12507,-1.81212 0.113911,-3.02529 -0.02455,-3.02529 -0.06405,0 -0.297514,-0.11477 -0.51874,-0.25505 -0.32139,-0.20372 -0.482151,-0.4061 -0.797783,-1.0033 l -0.395408,-0.74809 0.0092,-0.98098 c 0.01243,-1.15221 0.379853,-3.70681 0.622258,-4.30305 0.100935,-0.24771 0.16221,-0.2898 0.42361,-0.2898 0.168109,0 0.350191,0.0536 0.404322,0.11892 0.065,0.0784 0.106833,0.91897 0.122615,2.4748 l 0.02168,2.35601 0.244846,0.0287 c 0.186026,0.0223 0.264996,-0.0223 0.330744,-0.17821 0.04738,-0.1135 0.126632,-0.98956 0.175187,-1.94663 0.09905,-1.93489 0.204294,-2.58275 0.455003,-2.80987 0.195654,-0.17694 0.572511,-0.12338 0.655692,0.0937 0.06159,0.16132 0.464721,3.178 0.550443,4.12254 0.05289,0.58104 0.08018,0.65251 0.26745,0.69957 0.114549,0.0287 0.25135,0.0255 0.303093,-0.006 0.06223,-0.0386 0.09443,-0.83856 0.09443,-2.35789 0,-2.11461 0.01562,-2.31154 0.162817,-2.44725 0.334891,-0.30287 0.748529,-0.0832 0.981229,0.52128 0.153539,0.39906 0.427854,1.8346 0.558273,2.92273 0.09316,0.77784 0.09347,1.0919 0.0027,1.64985 -0.22661,1.38625 -0.39046,1.63209 -1.441372,2.16259 -0.454751,0.22954 -0.531122,0.30319 -0.530348,0.51214 4.94e-4,0.13422 0.05914,1.20714 0.130043,2.38432 0.07122,1.17721 0.156026,2.86276 0.189119,3.74564 0.07677,2.05608 0.155069,1.95329 -1.511058,1.98275 -0.743977,0.0127 -1.24647,-0.0159 -1.374999,-0.0813 z"
       id="path1399"
       inkscape:connector-curvature="0" />
    <path
       inkscape:connector-curvature="0"
       id="path857"
       d="m -30.175063,173.04217 c -0.388242,-0.57421 -0.747092,-1.11514 -0.797352,-1.20204 -0.05015,-0.0867 -0.354091,-0.56593 -0.674824,-1.06448 -0.320927,-0.49856 -1.05586,-1.68683 -1.633315,-2.64058 -3.077547,-5.08338 -4.844059,-8.68517 -5.290716,-10.78757 -0.264708,-1.24668 -0.08429,-3.42766 0.388758,-4.70125 0.55226,-1.48604 1.234971,-2.51838 2.298109,-3.47507 1.432325,-1.28889 3.242803,-2.04625 5.46134,-2.28453 3.808829,-0.4091 7.346254,1.26982 9.145785,4.34077 0.924867,1.57833 1.403488,4.43545 1.025745,6.12336 -0.660551,2.95181 -4.2712,9.58929 -9.028558,16.59755 -0.05174,0.0759 -0.114995,0.13804 -0.14117,0.13804 -0.02582,0 -0.365631,-0.4698 -0.753671,-1.04407 z m 2.180146,-14.37575 c 1.308613,-0.59085 2.028624,-1.8148 1.890605,-3.21374 -0.09453,-0.95784 -0.561808,-1.66926 -1.47326,-2.24277 -2.334903,-1.46911 -5.331848,0.16642 -5.168796,2.82061 0.104443,1.69993 1.609749,2.94824 3.49665,2.89971 0.599743,-0.0159 0.796169,-0.0567 1.254801,-0.26397 z"
       style="opacity:1;fill:#f9f9f9;fill-opacity:0.71212116;stroke:none;stroke-width:0.0199493;stroke-miterlimit:4;stroke-dasharray:none;stroke-opacity:1" />
  </g>
</svg>
